<?xml version="1.0" standalone="no"?>
<!DOCTYPE svg PUBLIC "-//W3C//DTD SVG 20010904//EN"
 "http://www.w3.org/TR/2001/REC-SVG-20010904/DTD/svg10.dtd">
<svg version="1.0" xmlns="http://www.w3.org/2000/svg"
 width="800.000000pt" height="800.000000pt" viewBox="0 0 800.000000 800.000000"
 preserveAspectRatio="xMidYMid meet">

<g transform="translate(0.000000,800.000000) scale(0.100000,-0.100000)"
fill="#000000" stroke="none">
<path d="M3415 5439 c-517 -13 -881 -40 -1018 -74 -176 -45 -318 -177 -372
-349 -94 -297 -120 -1243 -49 -1776 34 -260 74 -360 184 -464 118 -111 213
-142 520 -171 327 -30 639 -40 1320 -39 1071 0 1532 31 1704 115 128 63 234
193 271 335 50 191 79 556 79 994 0 589 -47 975 -138 1118 -90 143 -221 222
-411 251 -200 30 -478 47 -1005 61 -414 11 -637 11 -1085 -1z m708 -1125 c293
-169 533 -308 535 -309 2 -2 -93 -58 -210 -125 -117 -68 -356 -206 -531 -307
-175 -100 -322 -183 -327 -183 -6 0 -10 231 -10 615 0 338 3 615 6 615 3 0
245 -138 537 -306z"/>
</g>
</svg>
